<?xml version="1.0" encoding="iso-8859-1"?>
<!-- Generator: Adobe Illustrator 19.0.0, SVG Export Plug-In . SVG Version: 6.00 Build 0)  -->
<svg version="1.1" id="Capa_1" xmlns="http://www.w3.org/2000/svg" xmlns:xlink="http://www.w3.org/1999/xlink" x="0px" y="0px"
	 viewBox="0 0 468.293 468.293" style="enable-background:new 0 0 468.293 468.293;" xml:space="preserve">
<path style="fill:#F6C358;" d="M403.144,416.807c-4.728-7.103-7.454-15.922-8.158-25.111l-17.151-223.802H234.146H90.457
	L73.307,391.696c-0.704,9.19-3.43,18.009-8.158,25.111c-5.753,8.644-11.758,21.876-3.298,31.43
	c4.451,5.024,10.943,6.004,16.64,3.643c9.041-3.747,26.189-8.718,42.11-1.425c10.356,4.744,21.277,7.258,32.202,9.18
	c24.412,4.298,60.992,9.816,81.343,8.444c20.351,1.372,56.931-4.146,81.344-8.444c10.925-1.923,21.846-4.436,32.202-9.18
	c15.921-7.293,33.068-2.322,42.11,1.425c5.697,2.361,12.189,1.382,16.64-3.643C414.902,438.684,408.898,425.451,403.144,416.807z"/>
<path style="fill:#E1E6E9;" d="M364.883,144.586c0.057-1.098,0.238-2.075,0.238-3.227C365.121,88.956,306.481,0,234.145,0
	C161.81,0,103.172,88.956,103.172,141.359c0,1.152,0.181,2.129,0.236,3.227H364.883z"/>
<path style="fill:#DC8744;" d="M75.902,141.702c1.334-1.766,16.379-26.118,70.387-19.921c0,0,54.37,4.77,82.758,1.81
	c12.672-1.321,33.377-3.004,46.116-3.21c28.533-0.462,68.012-0.547,86.032,3.341c4.616,0.996,8.58,3.799,11.491,7.516
	c2.405,3.072,6.231,7.069,11.062,9.123c6.529,2.776,11.56,8.599,12.602,15.617c1.052,7.083-1.494,14.055-15.881,13.613
	c0,0-50.289,6.477-63.217,10.948c-1.892,0.654-3.754,1.079-5.753,1.174c-16.713,0.797-89.212,3.974-108.875,0.148
	c-0.992-0.193-1.89-0.336-2.9-0.383c-11.233-0.521-84.245-4.2-108.327-12.772C91.396,168.706,60.851,161.623,75.902,141.702z"/>
<path style="fill:#F6C358;" d="M395.125,151.702c-1.963,3.351-6.254,5.66-14.667,5.402c0,0-50.288,6.476-63.216,10.947
	c-1.892,0.654-3.754,1.079-5.753,1.175c-16.713,0.796-89.212,3.973-108.875,0.147c-0.992-0.192-1.89-0.335-2.9-0.383
	c-11.232-0.521-84.245-4.2-108.327-12.771c0,0-13.056-3.073-17.865-10.773c-8.79,17.067,17.865,23.261,17.865,23.261
	c24.082,8.572,97.095,12.25,108.327,12.771c1.01,0.047,1.908,0.191,2.9,0.383c19.663,3.826,92.162,0.649,108.875-0.147
	c1.999-0.095,3.861-0.521,5.753-1.175c12.928-4.471,63.216-10.947,63.216-10.947c14.387,0.443,16.933-6.53,15.881-13.612
	C396.118,154.488,395.683,153.066,395.125,151.702z"/>
<g>
	<path style="fill:#DC8744;" d="M191.697,241.629c0,0,14.789,15.892,27.222,21.665c3.172,1.473,6.034,3.585,8.176,6.35
		c3.797,4.901,6.639,12.932-1.591,23.248c0,0-11.926,11.152-27.751-13.411c-2.606-4.045-4.45-8.538-5.424-13.251
		C190.862,259.123,189.259,248.081,191.697,241.629z"/>
	<path style="fill:#DC8744;" d="M276.596,241.629c0,0-14.789,15.892-27.222,21.665c-3.172,1.473-6.034,3.585-8.176,6.35
		c-3.797,4.901-6.639,12.932,1.591,23.248c0,0,11.926,11.152,27.751-13.411c2.606-4.045,4.45-8.538,5.424-13.251
		C277.43,259.123,279.033,248.081,276.596,241.629z"/>
	<path style="fill:#DC8744;" d="M191.697,291.199c0,0,14.789,15.892,27.222,21.665c3.172,1.473,6.034,3.585,8.176,6.35
		c3.797,4.901,6.639,12.932-1.591,23.248c0,0-11.926,11.152-27.751-13.411c-2.606-4.045-4.45-8.538-5.424-13.25
		C190.862,308.693,189.259,297.65,191.697,291.199z"/>
	<path style="fill:#DC8744;" d="M276.596,291.199c0,0-14.789,15.892-27.222,21.665c-3.172,1.473-6.034,3.585-8.176,6.35
		c-3.797,4.901-6.639,12.932,1.591,23.248c0,0,11.926,11.152,27.751-13.411c2.606-4.045,4.45-8.538,5.424-13.25
		C277.43,308.693,279.033,297.65,276.596,291.199z"/>
	<path style="fill:#DC8744;" d="M191.697,340.769c0,0,14.789,15.892,27.222,21.665c3.172,1.473,6.034,3.585,8.176,6.35
		c3.797,4.901,6.639,12.932-1.591,23.248c0,0-11.926,11.152-27.751-13.411c-2.606-4.045-4.45-8.538-5.424-13.25
		C190.862,358.263,189.259,347.22,191.697,340.769z"/>
	<path style="fill:#DC8744;" d="M276.596,340.769c0,0-14.789,15.892-27.222,21.665c-3.172,1.473-6.034,3.585-8.176,6.35
		c-3.797,4.901-6.639,12.932,1.591,23.248c0,0,11.926,11.152,27.751-13.411c2.606-4.045,4.45-8.538,5.424-13.25
		C277.43,358.263,279.033,347.22,276.596,340.769z"/>
</g>
<g>
</g>
<g>
</g>
<g>
</g>
<g>
</g>
<g>
</g>
<g>
</g>
<g>
</g>
<g>
</g>
<g>
</g>
<g>
</g>
<g>
</g>
<g>
</g>
<g>
</g>
<g>
</g>
<g>
</g>
</svg>
