<?xml version="1.0" encoding="iso-8859-1"?>
<!-- Generator: Adobe Illustrator 19.0.0, SVG Export Plug-In . SVG Version: 6.00 Build 0)  -->
<svg version="1.1" id="Capa_1" xmlns="http://www.w3.org/2000/svg" xmlns:xlink="http://www.w3.org/1999/xlink" x="0px" y="0px"
	 viewBox="0 0 468.293 468.293" style="enable-background:new 0 0 468.293 468.293;" xml:space="preserve">
<path style="fill:#D5D6DB;" d="M128.106,12.431L7.66,83.169C2.915,85.956,0,91.048,0,96.551v134.332
	c0,5.406,2.814,10.423,7.427,13.242l120.252,73.487c4.961,3.032,11.2,3.036,16.165,0.012l127.766-77.812
	c4.625-2.816,7.447-7.84,7.447-13.255V96.793c0-5.633-3.052-10.823-7.974-13.562l-127.572-70.98
	C138.707,9.579,132.847,9.647,128.106,12.431z"/>
<path style="fill:#E1E6E9;" d="M135.772,309.547c-0.955,0-1.884-0.263-2.698-0.763L12.82,235.295
	c-1.526-0.93-2.475-2.622-2.475-4.41V96.55c0-1.824,0.98-3.536,2.556-4.461l120.441-70.736c0.793-0.465,1.702-0.712,2.627-0.712
	c0.879,0,1.748,0.222,2.511,0.652l127.57,70.984c1.642,0.909,2.662,2.642,2.662,4.516V226.56c0,1.793-0.95,3.481-2.48,4.415
	l-127.767,77.814C137.652,309.284,136.722,309.547,135.772,309.547z"/>
<g>
	<path style="fill:#D5D6DB;" d="M212.057,117.974l-59.359,35.344c-24.017,9.97-39.423,0-39.423,0l-65.25-35.344v4.532l57.094,34.437
		c24.016,10.875,22.657,35.028,22.657,35.028v61.489h7.249v-56.641c-1.812-29.906,24.016-39.07,24.016-39.07l55.282-35.243
		L212.057,117.974z"/>
	<path style="fill:#D5D6DB;" d="M317.342,150.54l-120.446,70.738c-4.745,2.787-7.66,7.879-7.66,13.382v134.332
		c0,5.406,2.814,10.423,7.427,13.242l120.252,73.487c4.961,3.032,11.2,3.036,16.165,0.012l127.766-77.812
		c4.625-2.817,7.447-7.84,7.447-13.255V234.902c0-5.633-3.052-10.823-7.974-13.562l-127.572-70.98
		C327.943,147.688,322.083,147.756,317.342,150.54z"/>
</g>
<path style="fill:#E1E6E9;" d="M325.009,447.656c-0.955,0-1.884-0.263-2.698-0.763l-120.254-73.489
	c-1.526-0.93-2.475-2.622-2.475-4.41V234.66c0-1.824,0.98-3.536,2.556-4.461l120.441-70.736c0.793-0.465,1.702-0.712,2.627-0.712
	c0.879,0,1.748,0.222,2.511,0.652l127.57,70.984c1.642,0.909,2.662,2.642,2.662,4.516v129.767c0,1.793-0.95,3.481-2.48,4.415
	l-127.767,77.814C326.888,447.393,325.958,447.656,325.009,447.656z"/>
<path style="fill:#D5D6DB;" d="M401.293,256.083l-59.359,35.344c-24.017,9.97-39.423,0-39.423,0l-65.25-35.344v4.532l57.094,34.437
	c24.016,10.875,22.657,35.028,22.657,35.028v61.489h7.249v-56.641c-1.812-29.906,24.016-39.07,24.016-39.07l55.282-35.243
	L401.293,256.083z"/>
<g>
</g>
<g>
</g>
<g>
</g>
<g>
</g>
<g>
</g>
<g>
</g>
<g>
</g>
<g>
</g>
<g>
</g>
<g>
</g>
<g>
</g>
<g>
</g>
<g>
</g>
<g>
</g>
<g>
</g>
</svg>
