<svg id="Capa_1" enable-background="new 0 0 404.689 404.689" height="512" viewBox="0 0 404.689 404.689" width="512" xmlns="http://www.w3.org/2000/svg"><g><path d="m222.369 0h-39.89c-3.809 0-6.896 3.087-6.896 6.896v23.587h53.682v-23.587c0-3.809-3.087-6.896-6.896-6.896z" fill="#27a2db"/><path d="m273.753 346.791c-.853-2.713-.861-5.624-.256-8.403 1.767-8.122.261-13.939-1.41-17.487-1.454-3.089-1.998-6.494-1.538-9.877 1.177-8.66-1.008-14.949-3.094-18.745-1.674-3.049-2.177-6.553-1.844-10.015.645-6.7-1.86-11.316-4.285-14.136-2.836-3.298-4.484-7.463-4.267-11.807.708-14.171 6.763-26.965 10.994-34.292 2.737-4.738 4.136-10.123 4.136-15.595v-98.12c0-7.049-2.345-13.903-6.714-19.435-12.568-15.917-36.186-41.463-36.186-41.463v-13.465l-26.945-.898-26.945.898v13.465s-23.619 25.546-36.186 41.462c-4.368 5.533-6.713 12.386-6.713 19.435v98.12c0 5.472 1.399 10.857 4.135 15.595 4.231 7.327 10.286 20.121 10.994 34.292.217 4.344-1.43 8.509-4.266 11.807-2.425 2.82-4.93 7.436-4.285 14.136.333 3.462-.17 6.966-1.844 10.015-2.086 3.797-4.27 10.085-3.094 18.746.46 3.383-.084 6.788-1.538 9.877-1.67 3.549-3.176 9.365-1.409 17.487.605 2.779.596 5.689-.256 8.402-1.169 3.719-2.119 9.835.764 16.618 1.005 2.364 1.55 4.911 1.414 7.476-.256 4.843.232 13.589 5.413 22.732 0 0 5.765 10.59 21.938 8.536.719-.091 1.407-.395 1.975-.845l.67-.531c2.111-1.67 5.181-.916 6.256 1.503.65 1.464 2.101 2.407 3.703 2.407h20.974c1.412 0 2.723-.736 3.459-1.941l1.383-2.266c1.58-2.588 5.339-2.588 6.919 0l1.383 2.266c.736 1.206 2.046 1.941 3.459 1.941h20.974c1.602 0 3.053-.943 3.704-2.407 1.075-2.419 4.142-3.175 6.218-1.532l.701.555c.572.453 1.265.759 1.989.851 16.168 2.049 21.931-8.537 21.931-8.537 5.181-9.142 5.669-17.888 5.413-22.731-.136-2.566.409-5.113 1.414-7.477 2.882-6.782 1.93-12.898.762-16.617z" fill="#ebf0f3"/><path d="m264.958 336.533c1.259-5.799.273-9.679-.777-11.909-2.18-4.63-2.974-9.737-2.291-14.776.858-6.328-.666-10.759-2.099-13.366-2.407-4.391-3.405-9.596-2.88-15.054.294-3.044-.431-5.532-2.21-7.602-4.429-5.148-6.69-11.521-6.366-17.94.363-7.263 1.945-14.121 4.026-20.301h-100.03c2.082 6.181 3.665 13.041 4.03 20.307.311 6.415-1.946 12.784-6.375 17.936-1.779 2.069-2.505 4.555-2.21 7.599.525 5.466-.474 10.676-2.884 15.058-1.429 2.603-2.953 7.034-2.095 13.358.687 5.035-.107 10.147-2.291 14.785-1.05 2.227-2.035 6.104-.777 11.898.964 4.416.806 8.873-.457 12.884-.781 2.483-1.336 6.336.465 10.576 1.6 3.748 2.304 7.574 2.104 11.361-.188 3.552.119 10.608 4.233 17.872.29.457 3.025 4.461 10.347 4.461.542 0 1.101-.021 1.677-.066 2.197-1.596 4.864-2.471 7.565-2.471 3.943 0 7.604 1.816 9.997 4.807h15.753l.013-.019c2.338-3.838 6.422-6.129 10.919-6.129 4.489 0 8.572 2.289 10.919 6.129l.013.019h15.753c2.394-2.995 6.059-4.815 10.006-4.815 2.705 0 5.368.875 7.557 2.479.58.043 1.144.064 1.681.066h.004c7.313 0 10.044-4 10.279-4.369 4.173-7.36 4.48-14.414 4.293-17.959-.201-3.783.503-7.602 2.095-11.363 1.805-4.239 1.25-8.092.469-10.586-1.254-4.005-1.412-8.454-.456-12.87z" fill="#e1e6e9"/><path d="m132.499 103.663h139.69v97.254h-139.69z" fill="#27a2db"/><path d="m229.99 28.998h-55.292c-1.857 0-3.362 1.505-3.362 3.362s1.505 3.362 3.362 3.362h55.292c1.857 0 3.362-1.505 3.362-3.362s-1.505-3.362-3.362-3.362z" fill="#d5d6db"/><g fill="#2d93ba"><path d="m181.503 5.458c-.783 0-1.418.635-1.418 1.418v16.784c0 .783.635 1.418 1.418 1.418.784 0 1.419-.635 1.419-1.418v-16.783c0-.784-.635-1.419-1.419-1.419z"/><path d="m188.477 5.458c-.783 0-1.418.635-1.418 1.418v16.784c0 .783.635 1.418 1.418 1.418.784 0 1.419-.635 1.419-1.418v-16.783c-.001-.784-.636-1.419-1.419-1.419z"/><path d="m195.45 5.458c-.783 0-1.418.635-1.418 1.418v16.784c0 .783.635 1.418 1.418 1.418.784 0 1.419-.635 1.419-1.418v-16.783c0-.784-.635-1.419-1.419-1.419z"/><path d="m202.424 5.458c-.783 0-1.418.635-1.418 1.418v16.784c0 .783.635 1.418 1.418 1.418.784 0 1.419-.635 1.419-1.418v-16.783c0-.784-.635-1.419-1.419-1.419z"/><path d="m209.398 5.458c-.783 0-1.418.635-1.418 1.418v16.784c0 .783.635 1.418 1.418 1.418.784 0 1.419-.635 1.419-1.418v-16.783c-.001-.784-.636-1.419-1.419-1.419z"/><path d="m216.371 5.458c-.783 0-1.418.635-1.418 1.418v16.784c0 .783.635 1.418 1.418 1.418.784 0 1.419-.635 1.419-1.418v-16.783c0-.784-.635-1.419-1.419-1.419z"/><path d="m223.345 5.458c-.783 0-1.418.635-1.418 1.418v16.784c0 .783.635 1.418 1.418 1.418.784 0 1.419-.635 1.419-1.418v-16.783c0-.784-.635-1.419-1.419-1.419z"/></g><circle cx="202.344" cy="152.29" fill="#e1e6e9" r="31.625"/><path d="m202.344 129.532s-14.342 23.253-14.342 31.173 6.421 14.341 14.342 14.341 14.342-6.421 14.342-14.341-14.342-31.173-14.342-31.173z" fill="#27a2db"/></g></svg>